<?xml version="1.0" standalone="no"?>
<!DOCTYPE svg PUBLIC "-//W3C//DTD SVG 20010904//EN"
 "http://www.w3.org/TR/2001/REC-SVG-20010904/DTD/svg10.dtd">
<svg version="1.0" xmlns="http://www.w3.org/2000/svg"
 width="788.000000pt" height="1280.000000pt" viewBox="0 0 788.000000 1280.000000"
 preserveAspectRatio="xMidYMid meet">

<g transform="translate(0.000000,1280.000000) scale(0.100000,-0.100000)"
fill="#ff1414" stroke="none">
<path d="M3710 12794 c-853 -60 -1606 -355 -2265 -888 -231 -187 -536 -515
-722 -776 -361 -508 -608 -1136 -687 -1750 -70 -542 -29 -1370 109 -2175 248
-1449 799 -2919 1657 -4418 491 -859 1115 -1755 1717 -2465 242 -285 284 -317
421 -317 137 0 179 32 421 317 686 810 1384 1839 1929 2843 134 249 414 817
524 1067 619 1401 953 2690 1047 4043 20 280 17 827 -4 1010 -70 588 -245
1105 -541 1597 -174 291 -340 503 -591 754 -99 99 -230 221 -290 270 -606 490
-1286 777 -2060 869 -124 15 -550 27 -665 19z m410 -2325 c126 -15 221 -36
329 -73 539 -184 939 -643 1053 -1209 32 -161 32 -433 0 -594 -68 -339 -220
-614 -473 -858 -211 -202 -477 -343 -772 -407 -88 -19 -132 -22 -317 -22 -185
0 -229 3 -317 22 -523 114 -957 475 -1153 960 -89 221 -115 360 -115 607 1
207 21 333 81 507 138 397 437 736 808 917 155 76 377 140 531 154 90 8 266 6
345 -4z"/>
</g>
</svg>
